# xmcd
#
# Track frame offsets: 
#        150
#        11521
#        23181
#        36636
#        48821
#        61214
#        71076
#        85954
#        97931
#        113042
#        126903
#        146529
#        166291
#        176132
#        188115
#
# Disc length: 2786 seconds
#
# Revision: 3
# Processed by: cddbd v1.5PL3 Copyright (c) Steve Scherf et al.
# Submitted via: ExactAudioCopy v0.95a5
#
DISCID=cb0ae00f
DTITLE=Ray Gelato Meets The Good Fellas - Gangsters Of Swing
DYEAR=1900
DGENRE=Swing
TTITLE0=(Volare) Nel Blu Dipinto Di Blu
TTITLE1=Come Rock With Me
TTITLE2=Torero
TTITLE3=Cement Shoes Optional
TTITLE4=All Night Long
TTITLE5=Whistle Stop
TTITLE6=Rockin' Red Wing
TTITLE7=Lullaby Of Birdland
TTITLE8=Pasquale Americano
TTITLE9=John Ping Pong
TTITLE10=I Found My Love In Italy
TTITLE11=Things Ain't What They Used To Be
TTITLE12=Up Jumped The Rabbit
TTITLE13=Che Pupa!
TTITLE14=Swing Drink
EXTD=
EXTT0=
EXTT1=
EXTT2=
EXTT3=
EXTT4=
EXTT5=
EXTT6=
EXTT7=
EXTT8=
EXTT9=
EXTT10=
EXTT11=
EXTT12=
EXTT13=
EXTT14=
PLAYORDER=
